<svg id="Layer_35" enable-background="new 0 0 64 64" height="512" viewBox="0 0 64 64" width="512" xmlns="http://www.w3.org/2000/svg"><path d="m19 21h43v34h-43z" fill="#e6e9ed"/><path d="m27 41h10v8h-10z" fill="#fcd770"/><path d="m37 35h-10v-8h10v1z" fill="#fcd770"/><path d="m62 13v8h-38.03l.64-.64-1.44-2.38c.05-.1.08-.2.12-.3l2.71-.68v-4z" fill="#b4dd7f"/><path d="m19 55v4.5c0 .69-.28 1.32-.73 1.77s-1.08.73-1.77.73c-1.38 0-2.5-1.12-2.5-2.5v-19.5h5v4z" fill="#838f9b"/><path d="m14 40v19.5c0 1.38-1.12 2.5-2.5 2.5-.69 0-1.32-.28-1.77-.73s-.73-1.08-.73-1.77v-15.5-4z" fill="#838f9b"/><path d="m17 26 .34-1.36c3.32 1.33 5.66 4.57 5.66 8.36v8c0 1.66-1.34 3-3 3h-1v-4h-5-5v4h-1c-1.66 0-3-1.34-3-3v-8c0-3.79 2.34-7.03 5.66-8.36l.34 1.36h1.11c-.07.31-.11.65-.11 1 0 1.66.9 3 2 3s2-1.34 2-3c0-.35-.04-.69-.11-1z" fill="#ff826e"/><path d="m15.89 26c.07.31.11.65.11 1 0 1.66-.9 3-2 3s-2-1.34-2-3c0-.35.04-.69.11-1z" fill="#f0d0b4"/><path d="m14 8c3.31 0 6 2.69 6 6s-2.69 6-6 6-6-2.69-6-6 2.69-6 6-6zm2 6c0-1.1-.9-2-2-2s-2 .9-2 2 .9 2 2 2 2-.9 2-2z" fill="#fcd770"/><path d="m17.34 24.64-.34 1.36h-1.11-3.78-1.11l-.34-1.36-.34-1.35c-.1-.04-.2-.07-.3-.12l-2.99.83-3.64-3.64 1.44-2.38c-.05-.1-.08-.2-.12-.3l-2.71-.68v-6l2.71-.68c.04-.1.07-.2.12-.3l-1.44-2.38 4.25-4.25 2.38 1.44c.1-.05.2-.08.3-.12l.68-2.71h6l.68 2.71c.1.04.2.07.3.12l2.38-1.44 4.25 4.25-1.44 2.38c.05.1.08.2.12.3l2.71.68v2 4l-2.71.68c-.04.1-.07.2-.12.3l1.44 2.38-.64.64-3 3-2.99-.83c-.1.05-.2.08-.3.12zm2.66-10.64c0-3.31-2.69-6-6-6s-6 2.69-6 6 2.69 6 6 6 6-2.69 6-6z" fill="#ffc729"/><path d="m21 14c0-3.859-3.14-7-7-7s-7 3.141-7 7 3.14 7 7 7 7-3.141 7-7zm-12 0c0-2.757 2.243-5 5-5s5 2.243 5 5-2.243 5-5 5-5-2.243-5-5z"/><path d="m17 14c0-1.654-1.346-3-3-3s-3 1.346-3 3 1.346 3 3 3 3-1.346 3-3zm-4 0c0-.552.449-1 1-1s1 .448 1 1-.449 1-1 1-1-.448-1-1z"/><path d="m63 12h-36v-1.781l-2.416-.603 1.281-2.136-5.347-5.346-2.134 1.281-.603-2.415h-7.562l-.603 2.416-2.135-1.281-5.347 5.345 1.281 2.136-2.415.603v7.562l2.416.603-1.282 2.136 4.6 4.6 1.814-.5c-2.81 1.818-4.548 4.932-4.548 8.38v8c0 2.206 1.794 4 4 4v14.5c0 1.93 1.57 3.5 3.5 3.5.98 0 1.864-.407 2.5-1.058.636.651 1.52 1.058 2.5 1.058 1.93 0 3.5-1.57 3.5-3.5v-3.5h43zm-2 2v6h-35.446l-.97-1.616 2.416-.603v-3.781zm-56.347 6.209 1.296-2.159-.5-1.22-2.449-.611v-4.438l2.446-.611.503-1.22-1.296-2.159 3.138-3.139 2.158 1.296 1.22-.496.612-2.452h4.438l.487 1.949.203.535 1.142.464 2.158-1.296 3.138 3.139-1.296 2.159.503 1.22 2.446.611v4.438l-1.949.487-.534.205-.466 1.139 1.296 2.159-2.672 2.672-2.772-.765-1.072.432-.612 2.452h-4.438l-.487-1.949-.203-.535-.994-.399-2.772.765zm10.347 6.791c0 1.221-.592 2-1 2s-1-.779-1-2zm-9 14v-8c0-2.9 1.535-5.505 3.989-6.921l.23.921h.781c0 2.243 1.318 4 3 4s3-1.757 3-4h.781l.23-.921c2.454 1.416 3.989 4.021 3.989 6.921v8c0 1.103-.897 2-2 2v-12h-2v8h-8v-8h-2v12c-1.103 0-2-.897-2-2zm5.5 20c-.827 0-1.5-.673-1.5-1.5v-18.5h3v18.5c0 .827-.673 1.5-1.5 1.5zm5 0c-.827 0-1.5-.673-1.5-1.5v-18.5h3v18.5c0 .827-.673 1.5-1.5 1.5zm3.5-7v-9c2.206 0 4-1.794 4-4v-8c0-3.448-1.738-6.562-4.548-8.381l1.814.5 3.119-3.119h36.615v32z"/><path d="m29 16h2v2h-2z"/><path d="m33 16h2v2h-2z"/><path d="m37 16h2v2h-2z"/><path d="m40.707 25.707-1.414-1.414-1.707 1.707h-11.586v10h12v-7.586zm-12.707 2.293h7.586l-3.586 3.586-1.293-1.293-1.414 1.414 2.293 2.293h-3.586zm8 6h-3.586l3.586-3.586z"/><path d="m40 34h19v2h-19z"/><path d="m40 30h19v2h-19z"/><path d="m57 26h2v2h-2z"/><path d="m53 26h2v2h-2z"/><path d="m42 26h9v2h-9z"/><path d="m26 50h12v-10h-12zm2-8h8v6h-8z"/><path d="m57 48h2v2h-2z"/><path d="m53 48h2v2h-2z"/><path d="m40 48h11v2h-11z"/><path d="m40 44h19v2h-19z"/><path d="m40 40h19v2h-19z"/></svg>